<svg width="2034" height="329" viewBox="0 0 2034 329" fill="none" xmlns="http://www.w3.org/2000/svg">
<path d="M163.623 338.037C259.058 338.037 337.199 260.394 337.199 165.435H317.199C317.199 249.24 248.121 318.037 163.623 318.037V338.037ZM337.199 165.435C337.199 69.7659 259.128 -8.33582 163.818 -8.33582V11.6642C248.051 11.6642 317.199 80.7806 317.199 165.435H337.199ZM163.818 -8.33582C68.4919 -8.33582 -9.36869 69.7814 -9.36869 165.435H10.6313C10.6313 80.7651 79.5995 11.6642 163.818 11.6642V-8.33582ZM-9.36869 165.435C-9.36869 260.363 68.5462 338.037 163.623 338.037V318.037C79.5452 318.037 10.6313 249.271 10.6313 165.435H-9.36869ZM163.623 254.164C114.413 254.164 74.309 214.035 74.309 165.045H54.309C54.309 225.106 103.393 274.164 163.623 274.164V254.164ZM74.309 165.045C74.309 115.615 114.464 75.3419 163.623 75.3419V55.3419C103.342 55.3419 54.309 104.646 54.309 165.045H74.309ZM163.623 75.3419C213.015 75.3419 253.326 115.653 253.326 165.045H273.326C273.326 104.608 224.06 55.3419 163.623 55.3419V75.3419ZM253.326 165.045C253.326 213.997 213.066 254.164 163.623 254.164V274.164C224.009 274.164 273.326 225.144 273.326 165.045H253.326ZM557.373 7.31143V-2.68857H547.373V7.31143H557.373ZM557.373 183.155L550.4 190.323L567.373 206.834V183.155H557.373ZM371.403 2.24838L378.376 -4.91959L375.465 -7.75162H371.403V2.24838ZM368.287 2.24838V-7.75162H358.287V2.24838H368.287ZM368.287 322.389H358.287V332.389H368.287V322.389ZM431.381 322.389V332.389H441.381V322.389H431.381ZM431.381 146.546L438.354 139.378L421.381 122.866V146.546H431.381ZM617.74 327.842L610.767 335.01L613.679 337.842H617.74V327.842ZM620.661 327.842V337.842H630.661V327.842H620.661ZM620.661 7.31143H630.661V-2.68857H620.661V7.31143ZM547.373 7.31143V183.155H567.373V7.31143H547.373ZM564.346 175.987L378.376 -4.91959L364.43 9.41634L550.4 190.323L564.346 175.987ZM371.403 -7.75162H368.287V12.2484H371.403V-7.75162ZM358.287 2.24838V322.389H378.287V2.24838H358.287ZM368.287 332.389H431.381V312.389H368.287V332.389ZM441.381 322.389V146.546H421.381V322.389H441.381ZM424.408 153.713L610.767 335.01L624.713 320.674L438.354 139.378L424.408 153.713ZM617.74 337.842H620.661V317.842H617.74V337.842ZM630.661 327.842V7.31143H610.661V327.842H630.661ZM620.661 -2.68857H557.373V17.3114H620.661V-2.68857ZM675.186 322H665.186V332H675.186V322ZM738.28 322V332H748.28V322H738.28ZM738.28 8.09037H748.28V-1.90963H738.28V8.09037ZM675.186 8.09037V-1.90963H665.186V8.09037H675.186ZM675.186 332H738.28V312H675.186V332ZM748.28 322V8.09037H728.28V322H748.28ZM738.28 -1.90963H675.186V18.0904H738.28V-1.90963ZM665.186 8.09037V322H685.186V8.09037H665.186ZM1096.78 0.301045V-9.69896H1091.68L1088.68 -5.56302L1096.78 0.301045ZM946.644 207.692L938.548 213.561L946.65 224.737L954.744 213.556L946.644 207.692ZM796.31 0.301045L804.407 -5.56801L801.413 -9.69896H796.31V0.301045ZM792.805 0.301045V-9.69896H782.805V0.301045H792.805ZM792.805 322H782.805V332H792.805V322ZM855.899 322V332H865.899V322H855.899ZM855.899 185.297L864.134 179.624L845.899 153.154V185.297H855.899ZM946.45 316.742L938.215 322.415L941.195 326.742H946.45V316.742ZM946.839 316.742V326.742H952.1L955.08 322.407L946.839 316.742ZM1037.2 185.297H1047.2V153.097L1028.95 179.633L1037.2 185.297ZM1037.2 322H1027.2V332H1037.2V322ZM1100.29 322V332H1110.29V322H1100.29ZM1100.29 0.301045H1110.29V-9.69896H1100.29V0.301045ZM1088.68 -5.56302L938.544 201.828L954.744 213.556L1104.88 6.16511L1088.68 -5.56302ZM954.741 201.823L804.407 -5.56801L788.214 6.1701L938.548 213.561L954.741 201.823ZM796.31 -9.69896H792.805V10.301H796.31V-9.69896ZM782.805 0.301045V322H802.805V0.301045H782.805ZM792.805 332H855.899V312H792.805V332ZM865.899 322V185.297H845.899V322H865.899ZM847.664 190.97L938.215 322.415L954.685 311.069L864.134 179.624L847.664 190.97ZM946.45 326.742H946.839V306.742H946.45V326.742ZM955.08 322.407L1045.44 190.962L1028.95 179.633L938.598 311.077L955.08 322.407ZM1027.2 185.297V322H1047.2V185.297H1027.2ZM1037.2 332H1100.29V312H1037.2V332ZM1110.29 322V0.301045H1090.29V322H1110.29ZM1100.29 -9.69896H1096.78V10.301H1100.29V-9.69896ZM1155.01 322H1145.01V332H1155.01V322ZM1218.1 322V332H1228.1V322H1218.1ZM1218.1 8.09037H1228.1V-1.90963H1218.1V8.09037ZM1155.01 8.09037V-1.90963H1145.01V8.09037H1155.01ZM1155.01 332H1218.1V312H1155.01V332ZM1228.1 322V8.09037H1208.1V322H1228.1ZM1218.1 -1.90963H1155.01V18.0904H1218.1V-1.90963ZM1145.01 8.09037V322H1165.01V8.09037H1145.01ZM1395.89 135.251L1400.16 126.207L1400.15 126.202L1395.89 135.251ZM1422.18 89.6835L1413.24 94.1556L1418.42 104.514L1427.91 97.8807L1422.18 89.6835ZM1468.72 57.1631L1474.45 65.3602L1480.81 60.919L1478.09 53.6571L1468.72 57.1631ZM1346.63 178.482L1342.17 187.436L1342.17 187.437L1346.63 178.482ZM1306.71 232.423L1315.19 227.136L1309.61 218.163L1300.96 224.241L1306.71 232.423ZM1256.27 267.864L1250.52 259.682L1243.25 264.793L1247.47 272.616L1256.27 267.864ZM1366.68 338.231C1401.99 338.231 1432.87 328.663 1455.13 310.639C1477.59 292.456 1490.6 266.168 1490.6 234.565H1470.6C1470.6 260.213 1460.25 280.759 1442.54 295.096C1424.64 309.592 1398.55 318.231 1366.68 318.231V338.231ZM1490.6 234.565C1490.6 207.793 1481.4 186.683 1465.06 169.175C1449.06 152.037 1426.49 138.63 1400.16 126.207L1391.63 144.295C1417.3 156.408 1437.08 168.512 1450.44 182.823C1463.45 196.764 1470.6 213.043 1470.6 234.565H1490.6ZM1400.15 126.202C1381.16 117.27 1367.5 112.024 1357.51 106.228C1347.89 100.641 1346.11 96.9597 1346.11 93.1887H1326.11C1326.11 108.112 1336.21 116.991 1347.47 123.526C1358.37 129.853 1374.61 136.29 1391.64 144.3L1400.15 126.202ZM1346.11 93.1887C1346.11 88.9681 1348.38 84.262 1353.77 80.2657C1359.16 76.2703 1367.28 73.3945 1377.2 73.3945V53.3945C1363.55 53.3945 1351.13 57.3344 1341.87 64.1955C1332.61 71.0554 1326.11 81.2465 1326.11 93.1887H1346.11ZM1377.2 73.3945C1391.94 73.3945 1405.99 79.6583 1413.24 94.1556L1431.13 85.2114C1419.68 62.32 1397.51 53.3945 1377.2 53.3945V73.3945ZM1427.91 97.8807L1474.45 65.3602L1463 48.9659L1416.45 81.4864L1427.91 97.8807ZM1478.09 53.6571C1461.96 10.5629 1421.77 -8.53056 1376.23 -8.53056V11.4694C1416.36 11.4694 1447.06 27.8174 1459.36 60.6691L1478.09 53.6571ZM1376.23 -8.53056C1314.74 -8.53056 1262.63 30.2395 1262.63 91.6308H1282.63C1282.63 44.3612 1322.43 11.4694 1376.23 11.4694V-8.53056ZM1262.63 91.6308C1262.63 119.727 1273.7 139.605 1289.56 154.533C1304.92 168.995 1324.83 178.813 1342.17 187.436L1351.08 169.528C1333.17 160.624 1316.09 152.041 1303.26 139.97C1290.93 128.365 1282.63 113.581 1282.63 91.6308H1262.63ZM1342.17 187.437C1358.88 195.741 1375.72 203.998 1388.48 212.918C1394.83 217.353 1399.66 221.62 1402.84 225.702C1405.98 229.729 1407.12 233.064 1407.12 235.928H1427.12C1427.12 227.303 1423.56 219.757 1418.62 213.414C1413.73 207.127 1407.11 201.536 1399.94 196.526C1385.68 186.557 1367.28 177.58 1351.08 169.527L1342.17 187.437ZM1407.12 235.928C1407.12 239.767 1404.99 244.121 1398.41 248.005C1391.71 251.954 1381.25 254.748 1367.66 254.748V274.748C1383.66 274.748 1397.93 271.506 1408.57 265.232C1419.31 258.893 1427.12 248.837 1427.12 235.928H1407.12ZM1367.66 254.748C1355.38 254.748 1345.26 252.457 1336.86 248.053C1328.5 243.672 1321.29 236.917 1315.19 227.136L1298.22 237.709C1305.95 250.128 1315.68 259.536 1327.57 265.768C1339.42 271.977 1352.87 274.748 1367.66 274.748V254.748ZM1300.96 224.241L1250.52 259.682L1262.02 276.046L1312.46 240.605L1300.96 224.241ZM1247.47 272.616C1270.49 315.248 1312.14 338.231 1366.68 338.231V318.231C1318.4 318.231 1284.11 298.374 1265.07 263.113L1247.47 272.616ZM1708.05 70.2102V80.2102H1718.05V70.2102H1708.05ZM1708.05 8.09037H1718.05V-1.90963H1708.05V8.09037ZM1518.77 8.09037V-1.90963H1508.77V8.09037H1518.77ZM1518.77 322H1508.77V332H1518.77V322ZM1708.05 322V332H1718.05V322H1708.05ZM1708.05 259.296H1718.05V249.296H1708.05V259.296ZM1581.86 259.296H1571.86V269.296H1581.86V259.296ZM1581.86 194.45V184.45H1571.86V194.45H1581.86ZM1690.14 194.45V204.45H1700.14V194.45H1690.14ZM1690.14 131.551H1700.14V121.551H1690.14V131.551ZM1581.86 131.551H1571.86V141.551H1581.86V131.551ZM1581.86 70.2102V60.2102H1571.86V70.2102H1581.86ZM1718.05 70.2102V8.09037H1698.05V70.2102H1718.05ZM1708.05 -1.90963H1518.77V18.0904H1708.05V-1.90963ZM1508.77 8.09037V322H1528.77V8.09037H1508.77ZM1518.77 332H1708.05V312H1518.77V332ZM1718.05 322V259.296H1698.05V322H1718.05ZM1708.05 249.296H1581.86V269.296H1708.05V249.296ZM1591.86 259.296V194.45H1571.86V259.296H1591.86ZM1581.86 204.45H1690.14V184.45H1581.86V204.45ZM1700.14 194.45V131.551H1680.14V194.45H1700.14ZM1690.14 121.551H1581.86V141.551H1690.14V121.551ZM1591.86 131.551V70.2102H1571.86V131.551H1591.86ZM1581.86 80.2102H1708.05V60.2102H1581.86V80.2102ZM1964.9 322L1955.8 326.129L1958.46 332H1964.9V322ZM2033.25 322V332H2048.96L2042.32 317.771L2033.25 322ZM1883.12 0.301045L1892.18 -3.92811L1889.48 -9.69896H1883.12V0.301045ZM1881.17 0.301045V-9.69896H1874.8L1872.1 -3.9236L1881.17 0.301045ZM1731.22 322L1722.16 317.775L1715.53 332H1731.22V322ZM1799.38 322V332H1805.8L1808.47 326.162L1799.38 322ZM1819.44 278.185V268.185H1813.02L1810.35 274.023L1819.44 278.185ZM1945.04 278.185L1954.15 274.056L1951.49 268.185H1945.04V278.185ZM1843.97 224.439L1834.88 220.282L1828.41 234.439H1843.97V224.439ZM1882.34 140.509L1891.44 136.369L1882.36 116.403L1873.24 136.352L1882.34 140.509ZM1920.5 224.439V234.439H1936.04L1929.61 220.299L1920.5 224.439ZM1964.9 332H2033.25V312H1964.9V332ZM2042.32 317.771L1892.18 -3.92811L1874.05 4.5302L2024.19 326.229L2042.32 317.771ZM1883.12 -9.69896H1881.17V10.301H1883.12V-9.69896ZM1872.1 -3.9236L1722.16 317.775L1740.29 326.225L1890.23 4.52569L1872.1 -3.9236ZM1731.22 332H1799.38V312H1731.22V332ZM1808.47 326.162L1828.53 282.347L1810.35 274.023L1790.29 317.838L1808.47 326.162ZM1819.44 288.185H1945.04V268.185H1819.44V288.185ZM1935.93 282.314L1955.8 326.129L1974.01 317.871L1954.15 274.056L1935.93 282.314ZM1853.07 228.596L1891.43 144.666L1873.24 136.352L1834.88 220.282L1853.07 228.596ZM1873.23 144.648L1911.4 228.578L1929.61 220.299L1891.44 136.369L1873.23 144.648ZM1920.5 214.439H1843.97V234.439H1920.5V214.439Z" fill="white"/>
</svg>
